<?xml version="1.0" standalone="no"?><!DOCTYPE svg PUBLIC "-//W3C//DTD SVG 1.1//EN" "http://www.w3.org/Graphics/SVG/1.1/DTD/svg11.dtd"><svg t="1595317453025" class="icon" viewBox="0 0 1024 1024" version="1.1" xmlns="http://www.w3.org/2000/svg" p-id="2402" xmlns:xlink="http://www.w3.org/1999/xlink" width="250" height="250"><defs><style type="text/css"></style></defs><path d="M354.362 838.113c0 54.367-44.058 98.425-98.424 98.425-54.37 0-98.433-44.058-98.433-98.425 0-54.371 44.063-98.43 98.433-98.43 54.366 0 98.424 44.059 98.424 98.43z m551.202 0c0 54.367-44.063 98.425-98.43 98.425s-98.429-44.058-98.429-98.425c0-54.371 44.064-98.43 98.43-98.43s98.429 44.059 98.429 98.43z m87.968-335.427L905.564 345.97c-17.994-21.686-30.146-39.376-59.06-39.376H708.706V188.482c0-21.684-17.685-39.37-39.375-39.37H39.391c-21.685 0-39.37 17.686-39.37 39.37v590.572c0 21.683 17.685 39.37 39.37 39.37h78.514c9.654-67.824 67.556-120.342 138.033-120.342 70.473 0 128.375 52.517 138.029 120.342l275.136-0.039c9.69-67.818 67.595-120.303 138.034-120.303 70.473 0 128.378 52.517 138.033 120.342h39.14c21.683 0 39.37-17.686 39.37-39.37V582.198c-0.002-37.299-30.148-79.512-30.148-79.512z m-245.456 79.512v-196.86h96.312c6.345 0 15.154 9.302 15.154 9.302l82.89 154.107c7.341 10.802 15.305 23.609 15.305 33.45H748.076z m0 0" p-id="2403" fill="#8a8a8a"></path></svg>