<?xml version="1.0" standalone="no"?><!DOCTYPE svg PUBLIC "-//W3C//DTD SVG 1.1//EN" "http://www.w3.org/Graphics/SVG/1.1/DTD/svg11.dtd"><svg t="1592987626960" class="icon" viewBox="0 0 1024 1024" version="1.1" xmlns="http://www.w3.org/2000/svg" p-id="3608" xmlns:xlink="http://www.w3.org/1999/xlink" width="250" height="250"><defs><style type="text/css"></style></defs><path d="M699.6 324H338.3v371.8h361.3V324z m-17 122.4h-96v152.4c0 48.3-23 72.5-69 72.5-18.7 0-38-0.3-58-1-2-11.7-4.7-24.8-8-39.5 22.3 2.7 41.3 4 57 4 27.3 0 41-15.5 41-46.5V471.4c-40.5 62.8-100.3 118.5-179.4 166.9-6.3-11-14.8-22.2-25.5-33.5 77.6-43 138-95.8 180.9-158.4H362.8v-34h186.9v-72h37v72h96l-0.1 34z m23.7-382.7H318.4c-140.2 0-253.8 114.6-253.8 255.9v383.8c0 141.3 113.6 255.9 253.8 255.9h387.9c140.2 0 253.9-114.6 253.9-255.9V319.6c0-141.3-113.7-255.9-253.9-255.9z m31.3 691.6h-38v-24.5H338.3v25h-38V289h437.3v466.3z" fill="#bfbfbf" p-id="3609"></path></svg>