<?xml version="1.0" standalone="no"?><!DOCTYPE svg PUBLIC "-//W3C//DTD SVG 1.1//EN" "http://www.w3.org/Graphics/SVG/1.1/DTD/svg11.dtd"><svg t="1589455323112" class="icon" viewBox="0 0 1024 1024" version="1.1" xmlns="http://www.w3.org/2000/svg" p-id="5551" xmlns:xlink="http://www.w3.org/1999/xlink" width="250" height="250"><defs><style type="text/css"></style></defs><path d="M950.981632 227.741696c26.624 151.552 26.624 414.72 0 569.344-18.432 109.568-41.984 135.168-153.6 154.624-153.6 24.576-412.672 26.624-569.344-1.024-110.592-19.456-134.144-41.984-153.6-153.6-27.648-152.576-27.648-413.696 0-569.344 19.456-109.568 41.984-134.144 153.6-153.6 152.576-27.648 414.72-26.624 569.344 1.024C907.973632 94.621696 931.525632 117.149696 950.981632 227.741696L950.981632 227.741696zM369.349632 173.469696c-49.152 0-90.112 39.936-90.112 89.088 0 50.176 40.96 90.112 90.112 90.112 16.384 0 31.744-4.096 45.056-12.288 94.208-54.272 102.4-56.32 197.632 1.024 13.312 7.168 28.672 12.288 45.056 12.288 49.152 0 89.088-39.936 89.088-90.112 0-49.152-38.912-90.112-89.088-90.112-16.384 0-31.744 5.12-45.056 12.288-97.28 55.296-100.352 55.296-197.632 0C401.093632 177.565696 385.733632 173.469696 369.349632 173.469696L369.349632 173.469696zM800.453632 602.525696c49.152 0 89.088-39.936 89.088-90.112 0-49.152-39.936-89.088-89.088-89.088-16.384 0-31.744 4.096-45.056 11.264-95.232 54.272-132.096 46.08-210.944 13.312l-12.288-4.096c-6.144-2.048-12.288-3.072-19.456-3.072-5.12 0-11.264 1.024-18.432 2.048l-12.288 5.12c-83.968 32.768-114.688 41.984-211.968-14.336-13.312-7.168-28.672-11.264-44.032-11.264-50.176 0-90.112 39.936-90.112 89.088 0 50.176 39.936 90.112 89.088 90.112 16.384 0 31.744-4.096 45.056-12.288 90.112-52.224 138.24-48.128 156.672-31.744 7.168 4.096 1.024 10.24-14.336 29.696-23.552 27.648-72.704 67.584-116.736 108.544-18.432 17.408-27.648 38.912-27.648 64.512 0 50.176 39.936 90.112 89.088 90.112 11.264 0 22.528-2.048 33.792-5.12 86.016-23.552 155.648-64.512 200.704-86.016 12.288-7.168 5.12 3.072 17.408 32.768 8.192 22.528 34.816 56.32 73.728 59.392 59.392 6.144 92.16-45.056 78.848-93.184-16.384-58.368-75.776-100.352-138.24-75.776-66.56 27.648-125.952 40.96-191.488 40.96-12.288-1.024-11.264-5.12-8.192-12.288 8.192-29.696 58.368-114.688 116.736-143.36 59.392-27.648 109.568-37.888 214.016 22.528C767.685632 597.405696 783.045632 602.525696 800.453632 602.525696z" p-id="5552"></path></svg>