<?xml version="1.0" standalone="no"?><!DOCTYPE svg PUBLIC "-//W3C//DTD SVG 1.1//EN" "http://www.w3.org/Graphics/SVG/1.1/DTD/svg11.dtd"><svg t="1590555250881" class="icon" viewBox="0 0 1024 1024" version="1.1" xmlns="http://www.w3.org/2000/svg" p-id="3820" xmlns:xlink="http://www.w3.org/1999/xlink" width="250" height="250"><defs><style type="text/css"></style></defs><path d="M789.333333 938.666667H213.333333a128 128 0 0 1-128-128V490.666667a85.333333 85.333333 0 0 1 85.333334-85.333334h106.666666V170.666667a85.333333 85.333333 0 0 1 85.333334-85.333334h469.333333a85.333333 85.333333 0 0 1 85.333333 85.333334v640a128 128 0 0 1-128 128zM277.333333 490.666667a21.333333 21.333333 0 0 0-21.333333-21.333334H170.666667a21.333333 21.333333 0 0 0-21.333334 21.333334v320a64 64 0 0 0 128 0V490.666667z m192-277.333334a42.666667 42.666667 0 1 0 42.666667 42.666667 42.666667 42.666667 0 0 0-42.666667-42.666667z m234.666667 42.666667c-65.664 0.938667-106.666667 170.666667-106.666667 170.666667h-21.333333s-34.986667-87.104-85.333333-85.333334c-51.626667 1.813333-85.333333 106.666667-85.333334 106.666667h405.333334s-42.048-192.917333-106.666667-192z m74.666667 298.666667h-256a32 32 0 0 0 0 64h256a32 32 0 0 0 0-64z m0 149.333333h-362.666667a32 32 0 0 0 0 64h362.666667a32 32 0 0 0 0-64z" p-id="3821" fill="#bfbfbf"></path></svg>