<?xml version="1.0" standalone="no"?><!DOCTYPE svg PUBLIC "-//W3C//DTD SVG 1.1//EN" "http://www.w3.org/Graphics/SVG/1.1/DTD/svg11.dtd"><svg t="1590556689200" class="icon" viewBox="0 0 1024 1024" version="1.1" xmlns="http://www.w3.org/2000/svg" p-id="7328" xmlns:xlink="http://www.w3.org/1999/xlink" width="250" height="250"><defs><style type="text/css"></style></defs><path d="M972.8 481.28c0 128-10.24 239.616-30.72 331.776-2.048 9.216-10.24 16.384-19.456 16.384h-4.096c-11.264-2.048-18.432-13.312-15.36-24.576 20.48-89.088 30.72-197.632 30.72-323.584 0-106.496-8.192-203.776-23.552-288.768-2.048-13.312-12.288-22.528-25.6-24.576C777.216 151.552 669.696 143.36 563.2 143.36c-118.784 0-237.568 10.24-355.328 30.72-11.264 2.048-21.504-5.12-23.552-16.384s5.12-21.504 16.384-23.552c119.808-20.48 240.64-30.72 361.472-30.72 108.544 0 218.112 8.192 325.632 25.6 29.696 5.12 54.272 27.648 59.392 58.368C964.608 272.384 972.8 372.736 972.8 481.28zM846.848 287.744C862.208 374.784 870.4 475.136 870.4 583.68c0 97.28-6.144 186.368-18.432 263.168-3.072 18.432-13.312 35.84-28.672 47.104-12.288 9.216-26.624 13.312-41.984 13.312-4.096 0-7.168 0-11.264-1.024-7.168-1.024-14.336-3.072-20.48-7.168l-107.52-53.248c-6.144-3.072-13.312-4.096-20.48-2.048C537.6 861.184 452.608 870.4 368.64 870.4c-78.848 0-158.72-8.192-236.544-23.552-28.672-6.144-51.2-27.648-56.32-57.344C59.392 704.512 51.2 618.496 51.2 532.48c0-80.896 8.192-163.84 23.552-245.76 6.144-29.696 29.696-52.224 59.392-57.344 215.04-33.792 437.248-33.792 652.288 0 30.72 5.12 54.272 28.672 60.416 58.368zM696.32 593.92c0-11.264-9.216-20.48-20.48-20.48H348.16c-11.264 0-20.48 9.216-20.48 20.48s9.216 20.48 20.48 20.48h327.68c11.264 0 20.48-9.216 20.48-20.48z m0-153.6c0-11.264-9.216-20.48-20.48-20.48H245.76c-11.264 0-20.48 9.216-20.48 20.48s9.216 20.48 20.48 20.48h430.08c11.264 0 20.48-9.216 20.48-20.48z" p-id="7329" fill="#bfbfbf"></path></svg>