<?xml version="1.0" standalone="no"?><!DOCTYPE svg PUBLIC "-//W3C//DTD SVG 1.1//EN" "http://www.w3.org/Graphics/SVG/1.1/DTD/svg11.dtd"><svg t="1590555414664" class="icon" viewBox="0 0 1024 1024" version="1.1" xmlns="http://www.w3.org/2000/svg" p-id="5281" xmlns:xlink="http://www.w3.org/1999/xlink" width="250" height="250"><defs><style type="text/css"></style></defs><path d="M938.666667 0 85.333333 0C38.4 0 0 38.4 0 85.333333l0 682.666667c0 46.933333 38.4 85.333333 85.333333 85.333333l42.666667 0c25.6 0 42.666667 17.066667 42.666667 42.666667l0 72.533333c0 46.933333 34.133333 68.266667 76.8 46.933333l264.533333-140.8c21.333333-12.8 55.466667-21.333333 81.066667-21.333333L938.666667 853.333333c46.933333 0 85.333333-38.4 85.333333-85.333333L1024 85.333333C1024 38.4 985.6 0 938.666667 0zM725.333333 597.333333 298.666667 597.333333c-25.6 0-42.666667-17.066667-42.666667-42.666667 0-25.6 21.333333-42.666667 42.666667-42.666667l426.666667 0c25.6 0 42.666667 17.066667 42.666667 42.666667C768 580.266667 746.666667 597.333333 725.333333 597.333333zM725.333333 341.333333 298.666667 341.333333C273.066667 341.333333 256 324.266667 256 298.666667c0-25.6 21.333333-42.666667 42.666667-42.666667l426.666667 0c25.6 0 42.666667 17.066667 42.666667 42.666667C768 324.266667 746.666667 341.333333 725.333333 341.333333z" p-id="5282" fill="#bfbfbf"></path></svg>