<?xml version="1.0" standalone="no"?><!DOCTYPE svg PUBLIC "-//W3C//DTD SVG 1.1//EN" "http://www.w3.org/Graphics/SVG/1.1/DTD/svg11.dtd"><svg class="icon" width="200px" height="200.00px" viewBox="0 0 1024 1024" version="1.1" xmlns="http://www.w3.org/2000/svg"><path d="M853.178415 628.363636a36.445091 36.445091 0 0 1-4.747637 6.330182l-286.626909 365.288727c-25.134545 32.023273-75.403636 32.023273-100.538182 0l-285.044363-363.52a47.383273 47.383273 0 0 1-6.376728-8.098909 260.468364 260.468364 0 0 1-2.513454-4.096A381.858909 381.858909 0 0 1 93.091142 397.917091C94.115142 177.431273 281.134778 0 512.465687 0 743.377687 0 930.909324 177.896727 930.909324 398.242909a389.306182 389.306182 0 0 1-75.031273 225.838546l-2.699636 4.282181z m-194.56-233.192727c0-79.173818-65.629091-143.36-146.618182-143.36S365.382051 315.997091 365.382051 395.170909c0 79.127273 65.629091 143.36 146.618182 143.36s146.618182-64.232727 146.618182-143.36z" /></svg>