<?xml version="1.0" standalone="no"?><!DOCTYPE svg PUBLIC "-//W3C//DTD SVG 1.1//EN" "http://www.w3.org/Graphics/SVG/1.1/DTD/svg11.dtd"><svg class="icon" width="200px" height="188.24px" viewBox="0 0 1088 1024" version="1.1" xmlns="http://www.w3.org/2000/svg"><path d="M1048.256 406.336c0.448 2.496 11.072 60.416 11.072 106.112 0 46.592-10.944 105.472-11.072 106.048-6.208 33.408-26.24 55.104-51.84 55.104h-4.48c-71.552 0-129.664 59.52-129.664 132.672 0 23.68 11.2 50.432 11.328 50.688 12.8 29.44 2.944 65.6-24.576 85.12l-135.296 76.288a72.96 72.96 0 0 1-81.536-18.112c-14.72-16.448-65.6-63.552-105.344-63.552-36.736 0-86.4 41.984-104.704 62.4-13.056 14.528-33.28 23.232-53.888 23.232-9.856 0-19.2-1.92-29.44-6.592L208.64 940.992a70.592 70.592 0 0 1-22.848-84.16c0.128-0.192 11.264-26.816 11.264-50.56 0-73.088-58.048-132.672-129.6-132.672H62.08c-24.704 0-44.736-21.568-50.944-55.04C10.56 615.936 0 557.76 0 512.384c0-45.568 10.56-103.744 11.072-106.112 6.208-33.536 26.112-55.104 51.712-55.104h4.48c71.552 0 129.664-59.52 129.664-132.672 0-24-11.2-50.432-11.328-50.688-12.8-29.44-2.944-65.728 24.704-85.248L348.032 5.504a73.984 73.984 0 0 1 81.152 17.28c14.464 15.488 64.512 59.84 103.04 59.84 38.272 0 88-43.392 102.4-58.688 13.12-13.952 33.152-22.272 53.44-22.272 9.92 0 19.328 1.92 29.568 6.4l132.928 75.84c25.856 18.56 35.712 54.656 22.912 84.224-0.128 0.192-11.328 26.816-11.328 50.56 0 73.024 58.24 132.672 129.664 132.672h5.376c24.832-0.128 44.8 21.44 51.072 54.976zM741.504 512a194.432 194.432 0 0 0-194.176-194.176A194.432 194.432 0 0 0 353.088 512a194.368 194.368 0 0 0 194.24 194.176A194.368 194.368 0 0 0 741.504 512z" /></svg>