<?xml version="1.0" standalone="no"?><!DOCTYPE svg PUBLIC "-//W3C//DTD SVG 1.1//EN" "http://www.w3.org/Graphics/SVG/1.1/DTD/svg11.dtd"><svg t="1592655773745" class="icon" viewBox="0 0 1024 1024" version="1.1" xmlns="http://www.w3.org/2000/svg" p-id="1895" xmlns:xlink="http://www.w3.org/1999/xlink" width="250" height="250"><defs><style type="text/css"></style></defs><path d="M169.9 188.7h263.2v263.2H169.9zM169.9 569.7h263.2v263.2H169.9z" p-id="1896" fill="#707070"></path><path d="M906.8 526c-10.9 0-19.7 8.8-19.7 19.7v311.7c0 16.3-13.3 29.6-29.6 29.6H166.6c-16.3 0-29.6-13.3-29.6-29.6V545.6c0-10.9-8.8-19.7-19.7-19.7-10.9 0-19.7 8.8-19.7 19.7v311.9c0 38.1 31 69.1 69.1 69.1h690.8c38.1 0 69.1-31 69.1-69.1V545.7c-0.1-10.9-8.9-19.7-19.8-19.7zM857.4 97.5H166.6c-38.1 0-69.1 31-69.1 69.1v305c0 10.9 8.8 19.7 19.7 19.7 10.9 0 19.7-8.8 19.7-19.7v-305c0-16.3 13.3-29.6 29.6-29.6h690.8c16.3 0 29.6 13.3 29.6 29.6v304.6c0 10.9 8.8 19.7 19.7 19.7s19.7-8.8 19.7-19.7V166.6c0.2-38.1-30.8-69.1-68.9-69.1z" p-id="1897" fill="#707070"></path><path d="M489.7 261.1h157.9c10.9 0 19.7-8.8 19.7-19.7 0-10.9-8.8-19.7-19.7-19.7H489.7c-10.9 0-19.7 8.8-19.7 19.7 0 10.8 8.8 19.7 19.7 19.7zM489.7 340h236.9c10.9 0 19.7-8.8 19.7-19.7s-8.8-19.7-19.7-19.7H489.7c-10.9 0-19.7 8.8-19.7 19.7s8.8 19.7 19.7 19.7zM489.7 419h315.8c10.9 0 19.7-8.8 19.7-19.7 0-10.9-8.8-19.7-19.7-19.7H489.7c-10.9 0-19.7 8.8-19.7 19.7 0 10.8 8.8 19.7 19.7 19.7zM489.7 642.1h157.9c10.9 0 19.7-8.8 19.7-19.7 0-10.9-8.8-19.7-19.7-19.7H489.7c-10.9 0-19.7 8.8-19.7 19.7 0 10.8 8.8 19.7 19.7 19.7zM489.7 721h236.9c10.9 0 19.7-8.8 19.7-19.7 0-10.9-8.8-19.7-19.7-19.7H489.7c-10.9 0-19.7 8.8-19.7 19.7 0 10.9 8.8 19.7 19.7 19.7zM489.7 800h315.8c10.9 0 19.7-8.8 19.7-19.7 0-10.9-8.8-19.7-19.7-19.7H489.7c-10.9 0-19.7 8.8-19.7 19.7 0 10.8 8.8 19.7 19.7 19.7z" p-id="1898" fill="#707070"></path></svg>