<?xml version="1.0" standalone="no"?><!DOCTYPE svg PUBLIC "-//W3C//DTD SVG 1.1//EN" "http://www.w3.org/Graphics/SVG/1.1/DTD/svg11.dtd"><svg class="icon" width="200px" height="200.00px" viewBox="0 0 1024 1024" version="1.1" xmlns="http://www.w3.org/2000/svg"><path d="M388.608 95.744H73.728c-17.408 0-31.744 14.336-31.744 31.744v332.8c0 17.408 14.336 31.744 31.744 31.744h314.88c17.408 0 31.744-13.824 31.744-31.744v-332.8c0-17.92-14.336-31.744-31.744-31.744zM388.608 604.16H73.728c-17.408 0-31.744 14.336-31.744 31.232v314.88c0 17.408 14.336 31.232 31.744 31.232h314.88c17.408 0 31.744-14.336 31.744-31.232v-314.88c0-16.896-14.336-31.232-31.744-31.232zM891.904 604.16h-314.88c-17.408 0-31.232 14.336-31.232 31.232v314.88c0 17.408 14.336 31.232 31.232 31.232h314.88c17.408 0 31.232-13.824 31.232-31.232v-314.88c0.512-16.896-13.824-31.232-31.232-31.232zM496.64 286.72l236.032-236.032 235.52 236.032-236.032 236.032z" /></svg>